HIERARCHY
ROOT Hips
{
	OFFSET 0.000000 0.000000 0.000000
	CHANNELS 6 Xposition Yposition Zposition Zrotation Yrotation Xrotation 
	JOINT LHipJoint
	{
		OFFSET 0.000000 0.000000 0.000000
		CHANNELS 3 Zrotation Yrotation Xrotation
		JOINT LeftUpLeg
		{
			OFFSET 1.363060 -1.794630 0.839290
			CHANNELS 3 Zrotation Yrotation Xrotation
			JOINT LeftLeg
			{
				OFFSET 2.448110 -6.726130 0.000000
				CHANNELS 3 Zrotation Yrotation Xrotation
				JOINT LeftFoot
				{
					OFFSET 2.562200 -7.039590 0.000000
					CHANNELS 3 Zrotation Yrotation Xrotation
					JOINT LeftToeBase
					{
						OFFSET 0.157640 -0.433110 2.322550
						CHANNELS 3 Zrotation Yrotation Xrotation
						End Site
						{
							OFFSET 0.000000 0.000000 0.000000
						}
					}
				}
			}
		}
	}
	JOINT RHipJoint
	{
		OFFSET 0.000000 0.000000 0.000000
		CHANNELS 3 Zrotation Yrotation Xrotation
		JOINT RightUpLeg
		{
			OFFSET -1.305520 -1.794630 0.839290
			CHANNELS 3 Zrotation Yrotation Xrotation
			JOINT RightLeg
			{
				OFFSET -2.542530 -6.985550 0.000000
				CHANNELS 3 Zrotation Yrotation Xrotation
				JOINT RightFoot
				{
					OFFSET -2.568260 -7.056230 0.000000
					CHANNELS 3 Zrotation Yrotation Xrotation
					JOINT RightToeBase
					{
						OFFSET -0.164730 -0.452590 2.363150
						CHANNELS 3 Zrotation Yrotation Xrotation
						End Site
						{
							OFFSET 0.000000 0.000000 0.000000
						}
					}
				}
			}
		}
	}
	JOINT LowerBack
	{
		OFFSET 0.000000 0.000000 0.000000
		CHANNELS 3 Zrotation Yrotation Xrotation
		JOINT Spine
		{
			OFFSET 0.028270 2.035590 -0.193380
			CHANNELS 3 Zrotation Yrotation Xrotation
			JOINT Spine1
			{
				OFFSET 0.056720 2.048850 -0.042750
				CHANNELS 3 Zrotation Yrotation Xrotation
				JOINT Neck
				{
					OFFSET 0.000000 0.000000 0.000000
					CHANNELS 3 Zrotation Yrotation Xrotation
					JOINT Neck1
					{
						OFFSET -0.054170 1.746240 0.172020
						CHANNELS 3 Zrotation Yrotation Xrotation
						JOINT Head
						{
							OFFSET 0.104070 1.761360 -0.123970
							CHANNELS 3 Zrotation Yrotation Xrotation
							End Site
							{
								OFFSET 0.000000 0.000000 0.000000
							}
						}
					}
				}
				JOINT LeftShoulder
				{
					OFFSET 0.000000 0.000000 0.000000
					CHANNELS 3 Zrotation Yrotation Xrotation
					JOINT LeftArm
					{
						OFFSET 3.362410 1.200890 -0.311210
						CHANNELS 3 Zrotation Yrotation Xrotation
						JOINT LeftForeArm
						{
							OFFSET 4.983000 -0.000000 -0.000000
							CHANNELS 3 Zrotation Yrotation Xrotation
							JOINT LeftHand
							{
								OFFSET 3.483560 -0.000000 -0.000000
								CHANNELS 3 Zrotation Yrotation Xrotation
								JOINT LeftFingerBase
								{
									OFFSET 0.000000 0.000000 0.000000
									CHANNELS 3 Zrotation Yrotation Xrotation
									JOINT LeftHandIndex1
									{
										OFFSET 0.715260 -0.000000 -0.000000
										CHANNELS 3 Zrotation Yrotation Xrotation
										End Site
										{
											OFFSET 0.000000 0.000000 0.000000
										}
									}
								}
								JOINT LThumb
								{
									OFFSET 0.000000 0.000000 0.000000
									CHANNELS 3 Zrotation Yrotation Xrotation
									End Site
									{
										OFFSET 0.000000 0.000000 0.000000
									}
								}
							}
						}
					}
				}
				JOINT RightShoulder
				{
					OFFSET 0.000000 0.000000 0.000000
					CHANNELS 3 Zrotation Yrotation Xrotation
					JOINT RightArm
					{
						OFFSET -3.136600 1.374050 -0.404650
						CHANNELS 3 Zrotation Yrotation Xrotation
						JOINT RightForeArm
						{
							OFFSET -5.241900 -0.000000 -0.000000
							CHANNELS 3 Zrotation Yrotation Xrotation
							JOINT RightHand
							{
								OFFSET -3.444170 -0.000000 -0.000000
								CHANNELS 3 Zrotation Yrotation Xrotation
								JOINT RightFingerBase
								{
									OFFSET 0.000000 0.000000 0.000000
									CHANNELS 3 Zrotation Yrotation Xrotation
									JOINT RightHandIndex1
									{
										OFFSET -0.622530 -0.000000 -0.000000
										CHANNELS 3 Zrotation Yrotation Xrotation
										End Site
										{
											OFFSET 0.000000 0.000000 0.000000
										}
									}
								}
								JOINT RThumb
								{
									OFFSET 0.000000 0.000000 0.000000
									CHANNELS 3 Zrotation Yrotation Xrotation
									End Site
									{
										OFFSET 0.000000 0.000000 0.000000
									}
								}
							}
						}
					}
				}
			}
		}
	}
}
MOTION
Frames: 4
Frame Time: 0.008333
2.850030 16.030030 2.952145 -6.444315 -78.087480 26.758619 -11.270094 -0.218771 3.021700 -1.451782 0.809100 -50.856183 -0.781966 2.788449 49.664433 2.642674 11.461448 -16.304546 -1.491600 -0.000000 -56.850700 9.675888 1.125278 -1.229165 -4.630114 -18.279261 -28.047381 1.883849 -0.985084 26.627965 -1.666618 -8.209409 -3.421540 -1.092600 -0.000000 -79.787700 3.965502 -3.119986 -2.218304 0.164962 -3.460672 -4.079046 -6.346217 -3.485483 -3.843155 9.455390 -9.734788 -2.480179 -3.420324 -0.310017 1.373046 0.000000 0.000000 0.000000 12.274625 -3.674868 -5.761569 -88.187481 -51.520474 22.639770 179.942951 -61.823203 179.748661 13.631126 -15.292796 -2.059607 -0.278778 1.485726 -0.000000 0.000000 0.000000 0.000000 0.000000 0.000000 0.000000 7.610664 -7.868753 2.158197 59.561089 -2.199005 1.389160 -179.902924 80.550696 179.863226 -18.829026 9.966034 -1.773968 0.245112 -0.577842 -0.000000 0.000000 0.000000 0.000000 0.000000 0.000000 0.000000 
2.827357 16.019772 2.977370 -4.706801 -75.690385 25.350027 -11.151056 -0.190385 3.438740 -1.259448 -0.899610 -51.583377 -0.706901 2.722693 49.719323 2.539828 10.807960 -16.149000 -1.380000 0.000001 -57.006500 9.759943 1.103634 -1.436781 -4.531451 -19.400408 -27.425615 1.878609 -0.971484 26.485146 -1.891502 -9.481094 -3.464075 -1.232500 0.000000 -79.519100 3.645888 -3.096163 -2.457348 0.112173 -3.416555 -4.141973 -6.283427 -3.448727 -3.878824 9.467369 -9.753014 -2.518015 -3.387858 -0.307859 1.365213 0.000000 0.000000 0.000000 12.244407 -3.844974 -5.886446 -89.290116 -51.553869 24.349197 179.934257 -62.283557 179.747235 13.773312 -15.181505 -2.067089 -0.285009 1.480281 -0.000000 0.000000 0.000000 0.000000 0.000000 0.000000 0.000000 7.605565 -7.730001 2.362316 58.261816 -3.537384 -0.026139 -179.941575 80.640104 179.866925 -18.867706 10.033619 -1.788339 0.252010 -0.570035 -0.000000 0.000000 0.000000 0.000000 0.000000 0.000000 0.000000 
2.803011 16.015847 3.001218 -3.243850 -73.251510 24.245822 -11.028339 -0.156077 3.860574 -1.097442 -2.600134 -52.257745 -0.645847 2.643629 49.591312 2.422913 10.101105 -15.893474 -1.248600 0.000001 -57.187900 9.840097 1.068920 -1.631390 -4.443124 -20.508099 -26.732720 1.872640 -0.940685 26.152680 -2.126143 -10.821247 -3.410197 -1.403800 0.000000 -79.177500 3.264899 -3.073531 -2.702189 0.052089 -3.367822 -4.203781 -6.199171 -3.407937 -3.906406 9.452714 -9.755315 -2.554863 -3.346171 -0.305082 1.357414 0.000000 0.000000 0.000000 12.187720 -4.003542 -6.003208 -90.363539 -51.528017 26.034401 179.922295 -62.742472 179.745519 13.945156 -15.077216 -2.079677 -0.292520 1.474612 -0.000000 0.000000 0.000000 0.000000 0.000000 0.000000 0.000000 7.538256 -7.570492 2.569921 56.910488 -4.831003 -1.508978 -179.978870 80.753244 179.870590 -18.907252 10.107277 -1.804017 0.259133 -0.562572 0.000000 0.000000 0.000000 0.000000 0.000000 0.000000 0.000000 
2.777274 16.018509 3.023457 -1.951081 -70.782575 23.334599 -10.895049 -0.112486 4.280369 -0.976587 -4.287864 -52.854597 -0.600770 2.551669 49.269677 2.292301 9.345495 -15.536140 -1.101800 0.000000 -57.376600 9.924228 1.027417 -1.817986 -4.377653 -21.616036 -25.959752 1.865899 -0.892977 25.623646 -2.365703 -12.207724 -3.251012 -1.612599 -0.000000 -78.835900 2.821927 -3.054496 -2.938591 -0.015699 -3.316485 -4.260762 -6.093727 -3.364806 -3.921935 9.409653 -9.738628 -2.592370 -3.294914 -0.301612 1.348929 0.000000 0.000000 0.000000 12.091392 -4.140613 -6.108981 -91.387755 -51.468176 27.698823 179.908691 -63.204083 179.743744 14.133516 -14.977891 -2.095180 -0.300893 1.468532 -0.000000 0.000000 0.000000 0.000000 0.000000 0.000000 0.000000 7.411955 -7.388438 2.782128 55.509370 -6.068942 -3.049036 179.985807 80.937531 179.874279 -18.943435 10.162375 -1.816104 0.266250 -0.554854 -0.000000 0.000000 0.000000 0.000000 0.000000 0.000000 0.000000 
